<?xml version="1.0" encoding="utf-8"?>
<!-- Generator: Adobe Illustrator 25.2.1, SVG Export Plug-In . SVG Version: 6.00 Build 0)  -->
<svg version="1.1" id="圖層_1" xmlns="http://www.w3.org/2000/svg" xmlns:xlink="http://www.w3.org/1999/xlink" x="0px" y="0px"
	 viewBox="0 0 595.28 841.89" style="enable-background:new 0 0 595.28 841.89;" xml:space="preserve">
<style type="text/css">
	.st0{fill:#FEFEFE;}
	.st1{fill:#E3E4E8;}
	.st2{fill:#E0E1E5;}
	.st3{fill:#4575AB;}
	.st4{fill:#FBE3CB;}
	.st5{fill:#CFDAE8;}
</style>
<path class="st0" d="M126.63,245.92c-0.2,0.2-0.4,0.4-0.6,0.6C125.92,246.01,126.12,245.81,126.63,245.92z"/>
<path class="st1" d="M126.03,594.46c0.2,0.2,0.4,0.4,0.6,0.6C126.12,595.17,125.92,594.97,126.03,594.46z"/>
<path class="st2" d="M467.97,595.06c0.2-0.2,0.4-0.4,0.6-0.6C468.68,594.97,468.48,595.17,467.97,595.06z"/>
<path class="st3" d="M207.37,443.63c-1.97-8.43-2.29-17.04-2.7-25.63c-0.1-2.05,0.35-4.13,0.53-6.2c0.09-1.13-0.21-1.99-1.59-1.94
	c-5.76,0.21-33.82-0.3-38.03-0.4c4.6-2.91,8.37-4.91,13.5-7.27c1.15-0.53,2-0.72,3.07-0.72c7.2-0.01,14.39,0,21.59-0.01
	c1.29,0,2.44,0.22,2.72-1.79c2.81-20.01,10.16-38.13,22.64-54.14c8.26-10.59,18.16-19.42,29.87-25.79
	c11.66-6.34,24.15-10.6,37.63-11.82c12.25-1.11,24.48-1.08,36.74-1.08c4.48,0,8.38-1.49,11.91-4.12c1.61-1.2,3.27-2.67,5.39-1.62
	c2.07,1.03,2.13,3.21,2.13,5.22c0.01,15.47,0,30.94,0.02,46.4c0,1.55-0.21,2.97-1.26,4.18c-1.21,1.38-2.46,1.97-4.11,0.61
	c-1.3-1.07-2.63-2.16-4.09-2.98c-3.34-1.88-6.88-2.94-10.84-2.86c-8.29,0.16-16.61-0.25-24.89,0.12
	c-21.71,0.96-38.18,10.72-48.7,29.93c-4.29,7.84-6.7,16.28-8.18,25.1c-3.29,19.52,0.76,37.62,10.91,54.24
	c7.68,12.58,19.19,20.61,33.63,24.1c7.63,1.84,15.46,1.32,23.22,1.33c4.9,0.01,9.8-0.05,14.69,0.01c4.59,0.06,8.58-1.49,12.17-4.22
	c1.61-1.22,3.33-2.58,5.42-1.5c2.06,1.07,2.03,3.21,2.02,5.26c-0.03,7.78,0.06,15.57-0.06,23.35c-0.03,2.22,0.61,2.91,2.87,2.89
	c12.39-0.11,24.79-0.03,37.19-0.09c1.88-0.01,3.75-0.36,5.62-0.56c-5.09,6.05-11.94,8.52-19.5,8.89
	c-7.48,0.36-14.98,0.14-22.48,0.07c-2.59-0.03-3.91,0.72-3.7,3.6c0.21,2.88,0.14,5.79,0,8.67c-0.08,1.67-0.33,3.56-2.17,4.28
	c-1.82,0.71-3.47,0.03-4.95-1.24c-3.53-3.03-7.65-4.42-12.33-4.55c-12.84-0.33-25.69,0.74-38.53-1.05
	c-9.37-1.31-18.28-3.83-26.89-7.55c-3.19-1.38-6.35-2.16-9.79-2.15c-10.69,0.03-21.38,0.1-32.07-0.02
	c-6.57-0.07-13.16,0.56-19.71-0.57c-7.06-1.22-13.42-3.92-18.33-9.22c-6.4-6.91-8.58-15.54-9.11-24.63
	c-0.75-12.69,1.95-24.93,5.64-36.95c0.23-0.75,0.4-1.91,1.47-2.11c3.64-0.49,7.5-0.6,11.62-0.41c-0.78,4.08-2.17,8.88-2.86,13.01
	c-1.43,8.51-2.06,16.93-0.3,25.43c2.8,13.47,10.27,22.66,24.05,25.99c9.93,2.4,19.99,0.42,30.83,1.29
	c-6.01-5.51-11.85-9.76-16.55-15.35c-10.23-12.15-17.73-25.66-22.25-40.88"/>
<path class="st4" d="M203.6,409.44c1.38-0.05,1.69,0.8,1.59,1.94c-0.17,2.07-0.62,4.15-0.53,6.2c0.41,8.59,0.41,14.87,2.59,25.63
	c0.29,1.24,0.96,3.64,0.96,3.64s-18.43-0.44-22.25,0.28c-1.07,0.2-1.02,1.02-1.25,1.77c-3.69,12.01-6.61,24.17-5.87,36.86
	c0.53,9.09,2.72,17.72,9.11,24.63c4.91,5.3,11.26,8.01,18.33,9.22c6.55,1.13,13.14,0.5,19.71,0.57c10.69,0.12,21.38,0.05,32.07,0.02
	c3.44-0.01,6.6,0.77,9.79,2.15c8.6,3.71,17.52,6.24,26.89,7.55c12.84,1.79,25.69,0.72,38.53,1.05c4.68,0.12,8.79,1.51,12.33,4.55
	c1.48,1.27,3.13,1.95,4.95,1.24c1.84-0.72,2.09-2.6,2.17-4.28c0.14-2.89,0.21-5.8,0-8.67c-0.21-2.88,1.11-3.63,3.7-3.6
	c7.49,0.08,15,0.3,22.48-0.07c7.56-0.37,14.41-2.84,19.5-8.89c6.44-5.09,9.35-12.26,11.34-19.83c5.5-20.87,0.67-40.03-10.02-58.15
	c-1.82-3.08-3.76-6.08-6.22-8.72c-0.95-1.03-1.12-1.81,0.42-2.76c8.31-5.1,16.49-9.85,24.74-15.05c0.94-0.59,0.87-0.64,2.47-1.52
	c0.34,0.61,12.28,16.93,16.07,25.41c6.2,13.85,9.54,28.32,9.82,43.53c0.17,9.38-0.83,18.66-2.62,27.79
	c-1.86,9.45-4.97,18.57-9.83,27.06c-3.5,6.11-8.07,11.28-12.8,16.38c0,0,0.02-0.02,0.02-0.02c-0.21,0.19-0.42,0.38-0.63,0.58
	c-6.77,4.62-13.72,8.92-21.71,11.14c-6.62,1.84-13.32,3.25-20.24,3.25c-56.28,0-112.56,0.23-168.83-0.14
	c-18.38-0.12-34.8-6.55-47.53-20.37c-9.35-10.15-14.32-22.5-17.11-35.91c-1.36-6.56-1.94-13.18-2.13-19.78
	c-0.19-6.61,0.18-13.29,0.95-19.91c1.38-12.02,4.41-23.6,9.09-34.75c2.78-6.64,6.41-12.53,10.71-18.73c1.1-1.5,1.07-1.29,2.1-1.29
	C169.15,409.43,197.84,409.65,203.6,409.44z"/>
<path class="st3" d="M402.99,555.93c3.93-1.93,11.94-6.24,21.38-13.65c4.94-4.91,8.77-10.79,10.2-13.3
	c4.86-8.49,7.97-17.6,9.83-27.06c1.79-9.13,2.79-18.41,2.62-27.79c-0.27-15.21-3.62-29.68-9.82-43.53
	c-3.79-8.48-15.73-24.8-16.07-25.41c7.15,4.28,11,5.78,15.88,9.65c9.44,12.48,12.42,21.73,15.6,34.23
	c2.15,7.6,3.24,22.93,2.97,34.52c-0.82,9.48-1,16.5-4.05,25.45c-4.76,13.92-13.14,28.48-24.9,36.3
	C415.85,552.63,409.97,553.38,402.99,555.93z"/>
<g>
	<path class="st4" d="M272.25,396.37c5.92-2.96,11.25-5.63,16.59-8.29c6.61-3.3,13.23-6.58,19.82-9.91c1.4-0.71,2.64-1.1,4.21-0.3
		c11.85,5.99,23.74,11.9,35.61,17.84c0.26,0.13,0.46,0.35,0.72,0.55c-0.31,1.2-1.46,1.3-2.28,1.71
		c-11.06,5.56-22.16,11.03-33.2,16.64c-1.89,0.96-3.39,0.99-5.3,0.02c-11.03-5.61-22.13-11.09-33.21-16.62
		C274.43,397.61,273.67,397.16,272.25,396.37z"/>
	<path class="st4" d="M272.08,425.87c0-5.48,0.04-10.96-0.02-16.44c-0.02-1.86,0.42-2.31,2.2-1.42
		c10.06,5.08,20.15,10.11,30.25,15.1c1.39,0.69,1.77,1.64,1.77,3.09c-0.04,10.86-0.05,21.72,0.01,32.58c0.01,2-0.41,2.48-2.35,1.5
		c-9.97-5.05-19.96-10.03-29.99-14.96c-1.5-0.74-1.92-1.75-1.9-3.31C272.12,436.63,272.08,431.25,272.08,425.87z"/>
	<path class="st4" d="M315.86,442.46c0-5.28,0.07-10.56-0.04-15.84c-0.04-1.82,0.5-2.91,2.2-3.74c9.85-4.83,19.68-9.7,29.45-14.69
		c2.3-1.17,2.61-0.46,2.59,1.72c-0.07,10.66-0.08,21.33,0.01,31.99c0.02,1.9-0.71,2.85-2.35,3.65c-9.76,4.79-19.51,9.61-29.18,14.57
		c-2.48,1.27-2.78,0.52-2.73-1.81C315.94,453.02,315.86,447.74,315.86,442.46z"/>
</g>
<path class="st5" d="M421.16,545.93c0.21-0.19,0.42-0.38,0.63-0.58C421.58,545.54,421.37,545.73,421.16,545.93z"/>
</svg>
